<?xml version="1.0" encoding="utf-8"?>
<!-- Generator: Adobe Illustrator 23.0.1, SVG Export Plug-In . SVG Version: 6.00 Build 0)  -->
<svg version="1.1" id="Layer_1" xmlns="http://www.w3.org/2000/svg" xmlns:xlink="http://www.w3.org/1999/xlink" x="0px" y="0px"
	 viewBox="0 0 150 40" style="enable-background:new 0 0 150 40;" xml:space="preserve">
<style type="text/css">
	.st0{fill:#887FFC;}
	.st1{fill:#FFFFFF;}
	.st2{fill:none;}
	.st3{font-family:'AntipastoPro-Bold';}
	.st4{font-size:25.4565px;}
</style>
<rect x="24" y="-3.4" class="st0" width="106" height="50.9"/>
<g>
	<path class="st1" d="M71.3,26.3c0-2.8,0-5.5,0-8.3c0-0.7,0.3-1,1-1c3.3,0,6.6-0.1,9.9,0.1c3.2,0.1,5.5,2.6,5.9,5.9
		c0.3,2.9-1.8,5.8-4.7,6.5c-0.9,0.3-1.7-0.2-2.1-1s-0.1-1.6,0.8-2.1c1-0.6,1.6-1.3,1.9-2.3c0.3-0.7,0-1.2-0.9-1.2
		c-1.5,0.1-3.1,0-4.6,0c-0.6,0-0.9-0.2-1.2-0.7c-0.4-0.7-0.9-1.3-1.3-2c-0.1-0.2-0.2-0.5-0.4-0.4s-0.1,0.3-0.1,0.5
		c0,3.2,0,6.3,0,9.4c0,1.7,0,3.3,0,5c0,0.6-0.2,0.7-0.7,0.7c-1,0-1.9,0-2.9,0c-0.5,0-0.7-0.2-0.7-0.7C71.4,31.9,71.3,29.1,71.3,26.3
		z"/>
	<path class="st1" d="M79.2,24.2c-0.1,0.5-0.3,0.7-0.7,0.7s-0.7-0.3-0.7-0.7c0-0.4,0.3-0.7,0.7-0.7S79.1,23.8,79.2,24.2z"/>
	<path class="st0" d="M79.6,22.1c-1.4,0-1.3,0.1-1.3-1.3c0-0.4-0.2-0.9,0.2-1c0.3-0.1,0.5,0.4,0.8,0.6c0.4,0.4,0.8,0.9,1.2,1.3
		c0.1,0.1,0.2,0.2,0.2,0.3c-0.1,0.2-0.2,0.1-0.3,0.1C80.1,22.1,79.8,22.1,79.6,22.1z"/>
</g>
<rect x="8.8" y="12.4" class="st2" width="83.4" height="23.9"/>
<text transform="matrix(1 0 0 1 24.793 28.7041)" class="st1 st3 st4">Furs</text>
<rect x="67.6" y="12.4" class="st2" width="83.4" height="23.9"/>
<text transform="matrix(1 0 0 1 89.6133 28.7041)" class="st1 st3 st4">ace</text>
</svg>
