<?xml version="1.0" encoding="utf-8"?>
<!-- Generator: Adobe Illustrator 23.0.1, SVG Export Plug-In . SVG Version: 6.00 Build 0)  -->
<svg version="1.1" id="Layer_1" xmlns="http://www.w3.org/2000/svg" xmlns:xlink="http://www.w3.org/1999/xlink" x="0px" y="0px"
	 viewBox="0 0 200 100" style="enable-background:new 0 0 200 100;" xml:space="preserve">
<style type="text/css">
	.st0{fill:#887FFC;}
	.st1{fill:#FFFFFF;}
	.st2{fill:none;}
	.st3{font-family:'AntipastoPro-Bold';}
	.st4{font-size:50px;}
</style>
<rect x="0" y="0.9" class="st0" width="200" height="100"/>
<g>
	<path class="st1" d="M87.1,57.2c0-5.5,0-10.9,0-16.4c0-1.4,0.5-2,1.9-2c6.5,0,13-0.1,19.5,0.1c6.2,0.2,10.9,5.1,11.5,11.6
		c0.6,5.6-3.5,11.3-9.2,12.8c-1.8,0.5-3.4-0.3-4.1-2c-0.7-1.6-0.1-3.1,1.6-4.1c1.9-1.1,3.1-2.6,3.8-4.6c0.5-1.4,0-2.3-1.7-2.3
		c-3,0.1-6,0-9.1,0c-1.1,0-1.8-0.4-2.4-1.3c-0.8-1.3-1.7-2.6-2.6-3.9c-0.2-0.3-0.3-0.9-0.8-0.7c-0.4,0.1-0.2,0.6-0.2,0.9
		c0,6.2,0,12.3,0,18.5c0,3.3,0,6.5,0,9.8c0,1.1-0.4,1.4-1.4,1.4c-1.9,0-3.7,0-5.6,0c-1,0-1.4-0.4-1.4-1.4
		C87.2,68.2,87.1,62.7,87.1,57.2z"/>
	<path class="st1" d="M102.5,53c-0.1,0.9-0.6,1.4-1.4,1.4s-1.4-0.6-1.4-1.4c0-0.8,0.5-1.3,1.3-1.3C102,51.7,102.3,52.3,102.5,53z"/>
	<path class="st0" d="M103.3,48.9c-2.8,0-2.5,0.2-2.5-2.5c0-0.7-0.4-1.7,0.3-2c0.6-0.2,1,0.8,1.5,1.2c0.8,0.8,1.6,1.7,2.4,2.5
		c0.2,0.2,0.4,0.3,0.3,0.6s-0.4,0.2-0.6,0.2C104.3,48.9,103.8,48.9,103.3,48.9z"/>
</g>
<rect x="1.6" y="29.9" class="st2" width="163.8" height="47"/>
<text transform="matrix(1 0 0 1 1.5606 61.9359)" class="st1 st3 st4">Furs</text>
<rect x="121" y="29.9" class="st2" width="163.8" height="47"/>
<text transform="matrix(1 0 0 1 121.0188 61.9359)" class="st1 st3 st4">ace</text>
</svg>
